# Blender v2.83.4 OBJ File: 'icosphere.blend'
# www.blender.org
mtllib icosphere.mtl
o Icosphere_Icosphere.001
v 0.209504 -5.717194 -0.802371
v 0.194691 -4.684981 1.018089
v -0.584116 -4.638996 -0.796989
v 0.440910 -4.684983 -0.938088
v 1.028422 -4.684983 0.129445
v -0.000000 -3.876345 -0.000000
v 0.178166 -6.060728 0.129444
v -0.003618 -5.523793 0.892291
v 0.847501 -5.523790 0.279175
v -1.005028 -5.502516 -0.000000
v -0.889814 -4.643277 0.520931
vt 0.272727 0.000000
vt 0.190565 0.168881
vt 0.427623 0.139429
vt 0.318592 0.288606
vt 0.681202 0.157461
vt 0.658666 0.274305
vt 0.840484 0.274305
vt 0.863020 0.157461
vt 0.985060 0.289045
vt 0.476848 0.274305
vt 0.448444 0.139429
vt 0.727272 0.393651
vt 0.910466 0.419556
vt 0.106898 0.289045
vt 0.181818 0.393651
vt 0.351338 0.412450
vt 0.544360 0.420043
vt 0.150722 0.155078
vt 0.000000 0.157461
vt 0.067874 0.039899
vt 0.636363 0.078731
vt 0.805883 0.059932
vn -0.3725 -0.8666 -0.3320
vn -0.5530 -0.4034 -0.7291
vn 0.7288 -0.0351 0.6838
vn -0.4176 -0.0374 0.9079
vn -0.1400 -0.0982 -0.9853
vn 0.8479 -0.2515 -0.4667
vn 0.5062 0.7198 0.4749
vn -0.2609 0.7310 0.6305
vn -0.6964 0.6998 -0.1593
vn -0.0586 0.7424 -0.6674
vn 0.6081 0.7198 -0.3347
vn -0.9413 0.2581 -0.2175
vn -0.6298 -0.3392 0.6988
vn 0.5657 -0.2515 0.7853
vn 0.8506 -0.2646 -0.4544
vn -0.4204 -0.7861 0.4531
vn 0.6394 -0.7282 -0.2469
vn 0.4227 -0.6906 0.5868
usemtl None
s off
f 7/1/1 10/2/1 1/3/1
f 1/3/2 10/2/2 3/4/2
f 9/5/3 5/6/3 2/7/3
f 8/8/4 2/7/4 11/9/4
f 1/3/5 3/4/5 4/10/5
f 1/11/6 4/10/6 5/6/6
f 2/7/7 5/6/7 6/12/7
f 11/9/8 2/7/8 6/13/8
f 3/4/9 11/14/9 6/15/9
f 4/10/10 3/4/10 6/16/10
f 5/6/11 4/10/11 6/17/11
f 10/2/12 11/14/12 3/4/12
f 10/18/13 8/19/13 11/14/13
f 8/8/14 9/5/14 2/7/14
f 9/5/15 1/11/15 5/6/15
f 7/20/16 8/19/16 10/18/16
f 9/5/17 7/21/17 1/11/17
f 7/22/18 9/5/18 8/8/18
